# xmcd
#
# Track frame offsets:
# 150
# 13319
# 26135
# 38340
# 49605
# 60423
# 70007
# 83560
# 94372
# 104001
#
# Disc length: 1595 seconds
#
#
# Revision: 1
# Processed by: cddbd v1.5.1PL2 Copyright (c) Steve Scherf et al.
# Submitted via: FreeRIP 2.945 
#
DISCID=7906390a
DTITLE=Gene Watson - Heartaches, Love And Stuff
DYEAR=1984
DGENRE=Country
TTITLE0=I Guess You Had to Be There
TTITLE1=One Hell Of A Heartache
TTITLE2=Got No Reason Now For Goin' Home
TTITLE3=Wino's Prayer
TTITLE4=Texas Saturday Night
TTITLE5=A Memory Away
TTITLE6=Independence Day
TTITLE7=Sailing Home To Me
TTITLE8=I Must Be Somebody Else
TTITLE9=That's When You Know It's Over
EXTD=
EXTT0=
EXTT1=
EXTT2=
EXTT3=
EXTT4=
EXTT5=
EXTT6=
EXTT7=
EXTT8=
EXTT9=
PLAYORDER=
